<?xml version="1.0" encoding="UTF-8" standalone="no" ?>
<!DOCTYPE svg PUBLIC "-//W3C//DTD SVG 1.1//EN" "http://www.w3.org/Graphics/SVG/1.1/DTD/svg11.dtd">
<svg xmlns="http://www.w3.org/2000/svg" xmlns:xlink="http://www.w3.org/1999/xlink" version="1.1" width="1280" height="1024" viewBox="0 0 1280 1024" xml:space="preserve">
<desc>Created with Fabric.js 5.3.0</desc>
<defs>
</defs>
<g transform="matrix(1 0 0 1 640 512)" id="background-logo"  >
<rect style="stroke: none; stroke-width: 0; stroke-dasharray: none; stroke-linecap: butt; stroke-dashoffset: 0; stroke-linejoin: miter; stroke-miterlimit: 4; fill: rgb(250,254,251); fill-rule: nonzero; opacity: 1;"  paint-order="stroke"  x="-640" y="-512" rx="0" ry="0" width="1280" height="1024" />
</g>
<g transform="matrix(2.4660669120106853 0 0 2.4660669120106853 633.7535341452806 541.3163084357545)" id="logo-logo"  >
<g style=""  paint-order="stroke"   >
		<g transform="matrix(0.39775703561442016 0 0 0.39775703561442016 0.00816139714277142 4.568169106461028)"  >
<path style="stroke: none; stroke-width: 1; stroke-dasharray: none; stroke-linecap: butt; stroke-dashoffset: 0; stroke-linejoin: miter; stroke-miterlimit: 4; fill: rgb(255,87,88); fill-rule: nonzero; opacity: 1;"  paint-order="stroke"  transform=" translate(-500, -511.45000000000005)" d="M 584.6 475.3 L 415.4 475.3 C 411.4 475.3 407.79999999999995 477.8 406.4 481.6 L 384.59999999999997 539.6 C 383.09999999999997 543.5 385.99999999999994 547.6 390.09999999999997 547.6 L 609.9 547.6 C 614 547.6 616.9 543.5 615.4 539.6 L 593.6 481.6 C 592.2 477.8 588.6 475.3 584.6 475.3 z" stroke-linecap="round" />
</g>
		<g transform="matrix(0.39775703561442016 0 0 0.39775703561442016 -47.72268287658767 45.9547886621414)"  >
<circle style="stroke: none; stroke-width: 1; stroke-dasharray: none; stroke-linecap: butt; stroke-dashoffset: 0; stroke-linejoin: miter; stroke-miterlimit: 4; fill: rgb(255,87,88); fill-rule: nonzero; opacity: 1;"  paint-order="stroke"  cx="0" cy="0" r="30.1" />
</g>
		<g transform="matrix(0.39775703561442016 0 0 0.39775703561442016 47.73900567087327 45.9547886621414)"  >
<ellipse style="stroke: none; stroke-width: 1; stroke-dasharray: none; stroke-linecap: butt; stroke-dashoffset: 0; stroke-linejoin: miter; stroke-miterlimit: 4; fill: rgb(255,87,88); fill-rule: nonzero; opacity: 1;"  paint-order="stroke"  cx="0" cy="0" rx="30.1" ry="30.1" />
</g>
		<g transform="matrix(0.39775703561442016 0 0 0.39775703561442016 -0.011726454637994266 43.19037726462119)"  >
<rect style="stroke: none; stroke-width: 0; stroke-dasharray: none; stroke-linecap: butt; stroke-dashoffset: 0; stroke-linejoin: miter; stroke-miterlimit: 4; fill: rgb(255,87,88); fill-rule: nonzero; opacity: 1;"  paint-order="stroke"  x="-79.05" y="-3.85" rx="0" ry="0" width="158.1" height="7.7" />
</g>
		<g transform="matrix(0.39775703561442016 0 0 0.39775703561442016 -0.011726454637994266 37.10469461972059)"  >
<rect style="stroke: none; stroke-width: 0; stroke-dasharray: none; stroke-linecap: butt; stroke-dashoffset: 0; stroke-linejoin: miter; stroke-miterlimit: 4; fill: rgb(255,87,88); fill-rule: nonzero; opacity: 1;"  paint-order="stroke"  x="-79.05" y="-3.85" rx="0" ry="0" width="158.1" height="7.7" />
</g>
		<g transform="matrix(0.39775703561442016 0 0 0.39775703561442016 -0.011726454637994266 49.27605990952185)"  >
<rect style="stroke: none; stroke-width: 0; stroke-dasharray: none; stroke-linecap: butt; stroke-dashoffset: 0; stroke-linejoin: miter; stroke-miterlimit: 4; fill: rgb(255,87,88); fill-rule: nonzero; opacity: 1;"  paint-order="stroke"  x="-79.05" y="-3.85" rx="0" ry="0" width="158.1" height="7.7" />
</g>
		<g transform="matrix(0.39775703561442016 0 0 0.39775703561442016 -0.011726454637994266 55.36174255442248)"  >
<rect style="stroke: none; stroke-width: 0; stroke-dasharray: none; stroke-linecap: butt; stroke-dashoffset: 0; stroke-linejoin: miter; stroke-miterlimit: 4; fill: rgb(255,87,88); fill-rule: nonzero; opacity: 1;"  paint-order="stroke"  x="-79.05" y="-3.85" rx="0" ry="0" width="158.1" height="7.7" />
</g>
		<g transform="matrix(0.39775703561442016 0 0 0.39775703561442016 -73.4489055173969 3.694028722919029)"  >
<path style="stroke: none; stroke-width: 1; stroke-dasharray: none; stroke-linecap: butt; stroke-dashoffset: 0; stroke-linejoin: miter; stroke-miterlimit: 4; fill: rgb(255,87,88); fill-rule: nonzero; opacity: 1;"  paint-order="stroke"  transform=" translate(-315.3217659592881, -509.25232577862096)" d="M 411.7 670.6 L 339.79999999999995 670.6 C 330.59999999999997 670.6 323.19999999999993 663.2 323.19999999999993 654 L 323.19999999999993 589.9 C 323.19999999999993 583.3 326.0999999999999 577.1 331.0999999999999 572.9 L 356.0999999999999 551.6999999999999 C 359.19999999999993 549.0999999999999 361.4999999999999 545.6999999999999 362.9999999999999 541.9999999999999 L 391.1999999999999 466.89999999999986 C 393.6999999999999 460.39999999999986 399.89999999999986 455.9999999999999 406.89999999999986 455.9999999999999 L 455.29999999999984 455.9999999999999 C 475.79999999999984 455.9999999999999 492.29999999999984 439.39999999999986 492.29999999999984 418.9999999999999 L 492.29999999999984 400.6999999999999 L 353.6 400.6999999999999 C 347 400.6999999999999 340.6 402.9999999999999 335.6 407.1999999999999 L 286.1 448.6999999999999 L 375.1 337.29999999999984 C 387.5 321.79999999999984 385.5 299.29999999999984 370.5 286.29999999999984 L 359.7 276.89999999999986 C 357.3 274.79999999999984 353.5 275.09999999999985 351.5 277.59999999999985 L 252.3 401.6999999999998 C 248.20000000000002 406.8999999999998 245.3 412.8999999999998 243.8 419.3999999999998 L 218.5 533.0999999999998 L 141.7 629.1999999999998 C 136.6 635.5999999999998 137.39999999999998 644.8999999999999 143.5 650.1999999999998 L 237.1 732.4999999999998 C 244.79999999999998 739.1999999999998 254.6 742.9999999999998 264.8 742.9999999999998 L 444.5 742.9999999999998 L 444.5 703.3999999999997 C 444.6 685.3 429.9 670.6 411.7 670.6 z" stroke-linecap="round" />
</g>
		<g transform="matrix(0.39775703561442016 0 0 0.39775703561442016 -98.64966975011004 -40.44078592161273)"  >
<path style="stroke: none; stroke-width: 1; stroke-dasharray: none; stroke-linecap: butt; stroke-dashoffset: 0; stroke-linejoin: miter; stroke-miterlimit: 4; fill: rgb(255,87,88); fill-rule: nonzero; opacity: 1;"  paint-order="stroke"  transform=" translate(-251.96458562988104, -398.29309516097476)" d="M 197.2 417.3 L 202.7 539.6 L 210.79999999999998 529.5 L 238.29999999999998 406 L 286.5 345.7 L 302.9 312.59999999999997 C 311.7 294.79999999999995 305 273.29999999999995 287.59999999999997 263.7 L 276.79999999999995 257.7 C 273.99999999999994 256.09999999999997 270.4 257.3 268.99999999999994 260.2 L 201.7 396 C 198.5 402.6 196.9 409.9 197.2 417.3 z" stroke-linecap="round" />
</g>
		<g transform="matrix(0.39775703561442016 0 0 0.39775703561442016 -123.46714003634708 -30.469599499124058)"  >
<path style="stroke: none; stroke-width: 1; stroke-dasharray: none; stroke-linecap: butt; stroke-dashoffset: 0; stroke-linejoin: miter; stroke-miterlimit: 4; fill: rgb(255,87,88); fill-rule: nonzero; opacity: 1;"  paint-order="stroke"  transform=" translate(-189.57104368309643, -423.361630798782)" d="M 192.6 552.3 L 197.5 546.1999999999999 L 188.5 404.0999999999999 L 220 340.5999999999999 L 220.2 339.3999999999999 C 224.29999999999998 319.99999999999994 212.5 300.7999999999999 193.29999999999998 295.7999999999999 L 188.7 294.5999999999999 C 185.6 293.7999999999999 182.39999999999998 295.7999999999999 181.7 298.8999999999999 L 159.1 404.8999999999999 C 157.7 411.49999999999994 157.79999999999998 418.2999999999999 159.5 424.8999999999999 L 192.6 552.3 z" stroke-linecap="round" />
</g>
		<g transform="matrix(0.39775703561442016 0 0 0.39775703561442016 73.45706691453967 3.705725173514992)"  >
<path style="stroke: none; stroke-width: 1; stroke-dasharray: none; stroke-linecap: butt; stroke-dashoffset: 0; stroke-linejoin: miter; stroke-miterlimit: 4; fill: rgb(255,87,88); fill-rule: nonzero; opacity: 1;"  paint-order="stroke"  transform=" translate(-684.6577154919195, -509.2817317967392)" d="M 858.3 629.2 L 781.5 533.1 L 756.2 419.40000000000003 C 754.8000000000001 412.90000000000003 751.9000000000001 406.90000000000003 747.7 401.70000000000005 L 648.5 277.6 C 646.5 275.1 642.7 274.70000000000005 640.3 276.90000000000003 L 629.5 286.3 C 614.6 299.3 612.6 321.8 624.9 337.3 L 713.9 448.70000000000005 L 664.4 407.20000000000005 C 659.3 403.00000000000006 653 400.70000000000005 646.4 400.70000000000005 L 507.7 400.70000000000005 L 507.7 419.00000000000006 C 507.7 439.50000000000006 524.3 456.00000000000006 544.7 456.00000000000006 L 593.1 456.00000000000006 C 600.1 456.00000000000006 606.3000000000001 460.30000000000007 608.8000000000001 466.90000000000003 L 637.0000000000001 542 C 638.4000000000001 545.8 640.8000000000001 549.1 643.9000000000001 551.7 L 668.9000000000001 572.9000000000001 C 673.9000000000001 577.1000000000001 676.8000000000001 583.4000000000001 676.8000000000001 589.9000000000001 L 676.8000000000001 654 C 676.8000000000001 663.2 669.4000000000001 670.6 660.2 670.6 L 588.3000000000001 670.6 C 570.1 670.6 555.4000000000001 685.3000000000001 555.4000000000001 703.5 L 555.4000000000001 743.1 L 735.1000000000001 743.1 C 745.3000000000002 743.1 755.1000000000001 739.4 762.8000000000002 732.6 L 856.4000000000002 650.3000000000001 C 862.5 644.9 863.4 635.6 858.3 629.2 z" stroke-linecap="round" />
</g>
		<g transform="matrix(0.39775703561442016 0 0 0.39775703561442016 98.6265797285817 -40.49166622554796)"  >
<path style="stroke: none; stroke-width: 1; stroke-dasharray: none; stroke-linecap: butt; stroke-dashoffset: 0; stroke-linejoin: miter; stroke-miterlimit: 4; fill: rgb(255,87,88); fill-rule: nonzero; opacity: 1;"  paint-order="stroke"  transform=" translate(-747.9363267053259, -398.1651771120667)" d="M 713.4 345.6 L 761.6 405.90000000000003 L 789.1 529.4000000000001 L 797.2 539.5000000000001 L 802.7 417.2000000000001 C 803 409.8000000000001 801.5 402.5000000000001 798.2 395.9000000000001 L 730.9000000000001 260.0000000000001 C 729.5000000000001 257.10000000000014 725.9000000000001 256.0000000000001 723.1000000000001 257.5000000000001 L 712.3000000000002 263.5000000000001 C 694.9000000000002 273.10000000000014 688.2000000000002 294.60000000000014 697.0000000000002 312.4000000000001 L 713.4 345.6 z" stroke-linecap="round" />
</g>
		<g transform="matrix(0.39775703561442016 0 0 0.39775703561442016 123.47744906527231 -30.470768097830017)"  >
<path style="stroke: none; stroke-width: 1; stroke-dasharray: none; stroke-linecap: butt; stroke-dashoffset: 0; stroke-linejoin: miter; stroke-miterlimit: 4; fill: rgb(255,87,88); fill-rule: nonzero; opacity: 1;"  paint-order="stroke"  transform=" translate(-810.4138371239741, -423.3586928276053)" d="M 780.1 340.6 L 811.6 404.1 L 802.6 546.2 L 807.5 552.3000000000001 L 840.5 424.9000000000001 C 842.2 418.4000000000001 842.3 411.5000000000001 840.9 404.9000000000001 L 818.3 298.9000000000001 C 817.5999999999999 295.7000000000001 814.4 293.80000000000007 811.3 294.6000000000001 L 806.6999999999999 295.80000000000007 C 787.4999999999999 300.80000000000007 775.5999999999999 320.00000000000006 779.8 339.4000000000001 L 780.1 340.6 z" stroke-linecap="round" />
</g>
</g>
</g>
<g transform="matrix(1.921095647188753 -0.014953760200742176 0.014953760200742178 1.9210956471887533 417.467809759322 815.656027977737)" id="text-logo-0"  >
<g style=""  paint-order="stroke"   >
		<g transform="matrix(1 0 0 1 0 0)" id="f418d90d-6b06-4f63-a70b-2eba96bdd612-path-0"  >
<path style="stroke: rgb(255,255,255); stroke-width: 0; stroke-dasharray: none; stroke-linecap: butt; stroke-dashoffset: 0; stroke-linejoin: miter; stroke-miterlimit: 4; fill: rgb(84,84,85); fill-rule: nonzero; opacity: 1;"  paint-order="stroke"  transform=" translate(-10.559999999999999, 11.2)" d="M 5.76 -7.36 L 1.28 -7.36 L 1.28 0 L 13.02 0 C 16.9 0 19.84 -2.94 19.84 -6.82 L 19.84 -15.58 C 19.84 -19.46 16.9 -22.4 13.02 -22.4 L 1.28 -22.4 L 1.28 -8.96 L 5.76 -8.96 L 5.76 -17.92 L 13.02 -17.92 C 14.72 -17.92 15.36 -17.28 15.36 -15.58 L 15.36 -6.82 C 15.36 -5.12 14.72 -4.48 13.02 -4.48 L 5.76 -4.48 Z" stroke-linecap="round" />
</g>
</g>
</g>
<g transform="matrix(1.9211204294161568 -0.011331207861366276 0.011331207861366276 1.9211204294161568 470.2492401873907 815.4060385835726)" id="text-logo-1"  >
<g style=""  paint-order="stroke"   >
		<g transform="matrix(1 0 0 1 0 0)" id="ecda2bde-f852-4ab0-ba44-e373fe2d5d3c-path-0"  >
<path style="stroke: rgb(255,255,255); stroke-width: 0; stroke-dasharray: none; stroke-linecap: butt; stroke-dashoffset: 0; stroke-linejoin: miter; stroke-miterlimit: 4; fill: rgb(84,84,85); fill-rule: nonzero; opacity: 1;"  paint-order="stroke"  transform=" translate(-10.559999999999999, 11.184999999999999)" d="M 8.1 0.03 L 19.84 0.03 L 19.84 -4.45 L 8.1 -4.45 C 6.4 -4.45 5.76 -5.09 5.76 -6.78 L 5.76 -7.36 L 1.28 -7.36 L 1.28 -6.78 C 1.28 -2.91 4.22 0.03 8.1 0.03 Z M 1.28 -22.4 L 1.28 -8.96 L 17.6 -8.96 L 17.6 -13.44 L 5.76 -13.44 L 5.76 -17.92 L 19.84 -17.92 L 19.84 -22.4 Z" stroke-linecap="round" />
</g>
</g>
</g>
<g transform="matrix(1.921138380711532 -0.007708615231590284 0.007708615231590284 1.921138380711532 523.311029609625 815.094572266328)" id="text-logo-2"  >
<g style=""  paint-order="stroke"   >
		<g transform="matrix(1 0 0 1 0 0)" id="5a4f2ee2-85f6-439c-98e9-059298bfefc2-path-0"  >
<path style="stroke: rgb(255,255,255); stroke-width: 0; stroke-dasharray: none; stroke-linecap: butt; stroke-dashoffset: 0; stroke-linejoin: miter; stroke-miterlimit: 4; fill: rgb(84,84,85); fill-rule: nonzero; opacity: 1;"  paint-order="stroke"  transform=" translate(-10.559999999999999, 11.2)" d="M 8.1 0 L 19.84 0 L 19.84 -4.48 L 8.1 -4.48 C 6.4 -4.48 5.76 -5.12 5.76 -6.82 L 5.76 -22.4 L 1.28 -22.4 L 1.28 -6.82 C 1.28 -2.94 4.22 0 8.1 0 Z" stroke-linecap="round" />
</g>
</g>
</g>
<g transform="matrix(1.9211495010110493 -0.004085995192274598 0.004085995192274599 1.9211495010110495 576.0922756069247 814.813844410625)" id="text-logo-3"  >
<g style=""  paint-order="stroke"   >
		<g transform="matrix(1 0 0 1 0 0)" id="23804541-4588-48a0-9b07-7b4ca641e93f-path-0"  >
<path style="stroke: rgb(255,255,255); stroke-width: 0; stroke-dasharray: none; stroke-linecap: butt; stroke-dashoffset: 0; stroke-linejoin: miter; stroke-miterlimit: 4; fill: rgb(84,84,85); fill-rule: nonzero; opacity: 1;"  paint-order="stroke"  transform=" translate(-10.559999999999999, 11.2)" d="M 13.02 -22.4 L 1.28 -22.4 L 1.28 -8.96 L 13.02 -8.96 C 16.86 -8.96 19.84 -11.78 19.84 -15.58 C 19.84 -19.46 16.9 -22.4 13.02 -22.4 Z M 1.28 -7.36 L 1.28 0 L 5.76 0 L 5.76 -7.36 Z M 13.02 -13.44 L 5.76 -13.44 L 5.76 -17.92 L 13.02 -17.92 C 14.72 -17.92 15.36 -17.28 15.36 -15.58 C 15.36 -14.02 14.75 -13.44 13.02 -13.44 Z" stroke-linecap="round" />
</g>
</g>
</g>
<g transform="matrix(1.921153790275169 -0.000463360624377048 0.000463360624377048 1.921153790275169 629.1542494599282 814.813844410625)" id="text-logo-4"  >
<g style=""  paint-order="stroke"   >
		<g transform="matrix(1 0 0 1 0 0)" id="c91e5c17-fcdd-4bd6-8b5f-650400e028d2-path-0"  >
<path style="stroke: rgb(255,255,255); stroke-width: 0; stroke-dasharray: none; stroke-linecap: butt; stroke-dashoffset: 0; stroke-linejoin: miter; stroke-miterlimit: 4; fill: rgb(84,84,85); fill-rule: nonzero; opacity: 1;"  paint-order="stroke"  transform=" translate(-10.559999999999999, 11.2)" d="M 5.76 -22.4 L 1.28 -22.4 L 1.28 0 L 5.76 0 Z M 7.36 -13.44 L 7.36 -8.96 L 15.36 -8.96 L 15.36 0 L 19.84 0 L 19.84 -22.4 L 15.36 -22.4 L 15.36 -13.44 Z" stroke-linecap="round" />
</g>
</g>
</g>
<g transform="matrix(1.9211525489374208 0.0022325552547856724 -0.0022325552547856724 1.9211525489374208 668.458353820968 814.813844410625)" id="text-logo-5"  >
<g style=""  paint-order="stroke"   >
		<g transform="matrix(1 0 0 1 0 0)" id="da19753b-fa76-4794-9a97-cb6285e3e534-path-0"  >
<path style="stroke: rgb(255,255,255); stroke-width: 0; stroke-dasharray: none; stroke-linecap: butt; stroke-dashoffset: 0; stroke-linejoin: miter; stroke-miterlimit: 4; fill: rgb(84,84,85); fill-rule: nonzero; opacity: 1;"  paint-order="stroke"  transform=" translate(-3.5199999999999996, 11.2)" d="M 5.76 -22.4 L 1.28 -22.4 L 1.28 0 L 5.76 0 Z" stroke-linecap="round" />
</g>
</g>
</g>
<g transform="matrix(1.92114752447784 0.004928466737614256 -0.004928466737614256 1.9211475244778402 708.0453906001733 814.813844410625)" id="text-logo-6"  >
<g style=""  paint-order="stroke"   >
		<g transform="matrix(1 0 0 1 0 0)" id="85b4ba14-5dc9-4f8e-9054-bbb2e2cde3cd-path-0"  >
<path style="stroke: rgb(255,255,255); stroke-width: 0; stroke-dasharray: none; stroke-linecap: butt; stroke-dashoffset: 0; stroke-linejoin: miter; stroke-miterlimit: 4; fill: rgb(84,84,85); fill-rule: nonzero; opacity: 1;"  paint-order="stroke"  transform=" translate(-10.559999999999999, 11.2)" d="M 1.28 0 L 5.76 0 L 5.76 -7.36 L 1.28 -7.36 Z M 1.28 -15.58 L 1.28 -8.96 L 5.76 -8.96 L 5.76 -15.58 C 5.76 -17.28 6.4 -17.92 8.1 -17.92 L 13.02 -17.92 C 14.72 -17.92 15.36 -17.28 15.36 -15.58 L 15.36 0 L 19.84 0 L 19.84 -15.58 C 19.84 -19.46 16.9 -22.4 13.02 -22.4 L 8.1 -22.4 C 4.22 -22.4 1.28 -19.46 1.28 -15.58 Z" stroke-linecap="round" />
</g>
</g>
</g>
<g transform="matrix(1.9211387169063192 0.0076243685153363295 -0.0076243685153363295 1.9211387169063192 747.3494949612132 815.094572266328)" id="text-logo-7"  >
<g style=""  paint-order="stroke"   >
		<g transform="matrix(1 0 0 1 0 0)" id="9e7e3130-23d2-48ef-8d4b-a678d6b6adfc-path-0"  >
<path style="stroke: rgb(255,255,255); stroke-width: 0; stroke-dasharray: none; stroke-linecap: butt; stroke-dashoffset: 0; stroke-linejoin: miter; stroke-miterlimit: 4; fill: rgb(84,84,85); fill-rule: nonzero; opacity: 1;"  paint-order="stroke"  transform=" translate(-3.5199999999999996, 11.2)" d="M 5.76 -22.4 L 1.28 -22.4 L 1.28 0 L 5.76 0 Z" stroke-linecap="round" />
</g>
</g>
</g>
<g transform="matrix(1.921126126240203 0.010320255279198607 -0.010320255279198607 1.9211261262402033 786.6535993222528 815.094572266328)" id="text-logo-8"  >
<g style=""  paint-order="stroke"   >
		<g transform="matrix(1 0 0 1 0 0)" id="adcdea52-b730-49f2-b7f1-157b4d1e26ae-path-0"  >
<path style="stroke: rgb(255,255,255); stroke-width: 0; stroke-dasharray: none; stroke-linecap: butt; stroke-dashoffset: 0; stroke-linejoin: miter; stroke-miterlimit: 4; fill: rgb(84,84,85); fill-rule: nonzero; opacity: 1;"  paint-order="stroke"  transform=" translate(-10.559999999999999, 11.2)" d="M 5.76 -6.82 L 5.76 -7.39 L 1.28 -7.39 L 1.28 -6.82 C 1.28 -2.94 4.22 0 8.1 0 L 13.02 0 C 16.9 0 19.84 -2.94 19.84 -6.82 L 19.84 -22.4 L 15.36 -22.4 L 15.36 -6.82 C 15.36 -5.12 14.72 -4.48 13.02 -4.48 L 8.1 -4.48 C 6.4 -4.48 5.76 -5.12 5.76 -6.82 Z M 1.28 -22.4 L 1.28 -8.99 L 5.76 -8.99 L 5.76 -22.4 Z" stroke-linecap="round" />
</g>
</g>
</g>
<g transform="matrix(1.9210995152485346 0.014448290679569311 -0.014448290679569311 1.9210995152485346 847.0167019860253 815.656027977737)" id="text-logo-9"  >
<g style=""  paint-order="stroke"   >
		<g transform="matrix(1 0 0 1 0 0)" id="48534a71-250e-4bcc-9829-5d51dd732f3b-path-0"  >
<path style="stroke: rgb(255,255,255); stroke-width: 0; stroke-dasharray: none; stroke-linecap: butt; stroke-dashoffset: 0; stroke-linejoin: miter; stroke-miterlimit: 4; fill: rgb(84,84,85); fill-rule: nonzero; opacity: 1;"  paint-order="stroke"  transform=" translate(-14.399999999999999, 11.2)" d="M 1.28 0 L 5.76 0 L 5.76 -7.36 L 1.28 -7.36 Z M 1.28 -15.58 L 1.28 -8.96 L 5.76 -8.96 L 5.76 -15.58 C 5.76 -17.28 6.4 -17.92 8.1 -17.92 L 9.82 -17.92 C 11.52 -17.92 12.16 -17.28 12.16 -15.58 L 12.16 0 L 16.64 0 L 16.64 -15.58 C 16.64 -17.28 17.28 -17.92 18.98 -17.92 L 20.7 -17.92 C 22.4 -17.92 23.04 -17.28 23.04 -15.58 L 23.04 0 L 27.52 0 L 27.52 -15.58 C 27.52 -19.46 24.58 -22.4 20.7 -22.4 L 18.98 -22.4 C 17.18 -22.4 15.58 -21.76 14.4 -20.7 C 13.22 -21.76 11.62 -22.4 9.82 -22.4 L 8.1 -22.4 C 4.22 -22.4 1.28 -19.46 1.28 -15.58 Z" stroke-linecap="round" />
</g>
</g>
</g>
<g transform="matrix(1.9211538461538462 0 0 1.9211538461538462 637.8011358148826 870.4073432556181)" id="tagline-702d95ad-e660-45fc-8296-2c3094778c06-logo"  >
<g style=""  paint-order="stroke"   >
		<g transform="matrix(1 0 0 1 0 0)" id="tagline-702d95ad-e660-45fc-8296-2c3094778c06-logo-path-0"  >
<path style="stroke: none; stroke-width: 0; stroke-dasharray: none; stroke-linecap: butt; stroke-dashoffset: 0; stroke-linejoin: miter; stroke-miterlimit: 4; fill: rgb(84,84,85); fill-rule: nonzero; opacity: 1;"  paint-order="stroke"  transform=" translate(-123.815, 6.840000000000001)" d="M 7.77 0 L 7.77 0 L 4.69 0 Q 4.33 0 4.17 -0.16 Q 4.01 -0.32 4.01 -0.68 L 4.01 -0.68 L 4.01 -10.01 L 1.22 -10.01 Q 0.85 -10.01 0.69 -10.17 Q 0.53 -10.34 0.53 -10.7 L 0.53 -10.7 L 0.53 -13 Q 0.53 -13.36 0.69 -13.52 Q 0.85 -13.68 1.22 -13.68 L 1.22 -13.68 L 11.25 -13.68 Q 11.61 -13.68 11.77 -13.52 Q 11.93 -13.36 11.93 -13 L 11.93 -13 L 11.93 -10.7 Q 11.93 -10.34 11.77 -10.17 Q 11.61 -10.01 11.25 -10.01 L 11.25 -10.01 L 8.46 -10.01 L 8.46 -0.68 Q 8.46 -0.32 8.29 -0.16 Q 8.13 0 7.77 0 Z M 32.28 -10.26 L 30.86 -10.26 L 30.86 -7.83 L 32.28 -7.83 Q 32.77 -7.83 32.95 -8.08 Q 33.12 -8.34 33.12 -8.72 L 33.12 -8.72 L 33.12 -9.37 Q 33.12 -9.75 32.95 -10 Q 32.77 -10.26 32.28 -10.26 L 32.28 -10.26 Z M 30.17 0 L 30.17 0 L 27.25 0 Q 26.89 0 26.72 -0.16 Q 26.56 -0.32 26.56 -0.68 L 26.56 -0.68 L 26.56 -13 Q 26.56 -13.36 26.72 -13.52 Q 26.89 -13.68 27.25 -13.68 L 27.25 -13.68 L 33.57 -13.68 Q 35.7 -13.68 36.51 -12.8 Q 37.32 -11.91 37.32 -10.51 L 37.32 -10.51 L 37.32 -9.63 Q 37.32 -8.83 37.08 -8.27 Q 36.84 -7.71 36.25 -7.47 L 36.25 -7.47 Q 37.28 -7.35 37.91 -6.63 Q 38.55 -5.91 38.55 -4.71 L 38.55 -4.71 L 38.55 -0.68 Q 38.55 -0.32 38.39 -0.16 Q 38.23 0 37.87 0 L 37.87 0 L 34.92 0 Q 34.56 0 34.4 -0.16 Q 34.24 -0.32 34.24 -0.68 L 34.24 -0.68 L 34.24 -3.59 Q 34.24 -4.01 34.08 -4.21 Q 33.91 -4.41 33.52 -4.41 L 33.52 -4.41 L 30.86 -4.41 L 30.86 -0.68 Q 30.86 -0.32 30.69 -0.16 Q 30.53 0 30.17 0 Z M 58.42 -9.69 L 58.42 -9.69 L 57.53 -6.8 L 60.52 -6.8 L 59.62 -9.69 Q 59.55 -9.86 59.46 -9.94 Q 59.38 -10.01 59.26 -10.01 L 59.26 -10.01 L 58.79 -10.01 Q 58.67 -10.01 58.59 -9.94 Q 58.5 -9.86 58.42 -9.69 Z M 57.34 -3.34 L 57.34 -0.68 Q 57.34 -0.32 57.18 -0.16 Q 57.02 0 56.66 0 L 56.66 0 L 53.87 0 Q 53.5 0 53.34 -0.16 Q 53.18 -0.32 53.18 -0.68 L 53.18 -0.68 L 53.18 -5.7 Q 53.18 -6.27 53.36 -7.01 Q 53.54 -7.75 53.92 -8.74 L 53.92 -8.74 L 55.58 -13.05 Q 55.69 -13.38 55.93 -13.53 Q 56.16 -13.68 56.54 -13.68 L 56.54 -13.68 L 61.66 -13.68 Q 62.02 -13.68 62.25 -13.53 Q 62.49 -13.38 62.61 -13.05 L 62.61 -13.05 L 64.26 -8.74 Q 64.64 -7.75 64.82 -7.01 Q 65 -6.27 65 -5.7 L 65 -5.7 L 65 -0.68 Q 65 -0.32 64.84 -0.16 Q 64.68 0 64.31 0 L 64.31 0 L 61.45 0 Q 61.07 0 60.89 -0.16 Q 60.7 -0.32 60.7 -0.68 L 60.7 -0.68 L 60.7 -3.34 L 57.34 -3.34 Z M 88.03 0 L 88.03 0 L 83.09 0 Q 82.73 0 82.49 -0.13 Q 82.25 -0.27 82.12 -0.63 L 82.12 -0.63 L 80.26 -5.28 Q 80.09 -5.7 79.97 -6.01 Q 79.86 -6.33 79.78 -6.61 Q 79.71 -6.9 79.68 -7.21 Q 79.65 -7.52 79.65 -7.98 L 79.65 -7.98 L 79.65 -13 Q 79.65 -13.36 79.81 -13.52 Q 79.97 -13.68 80.33 -13.68 L 80.33 -13.68 L 83.35 -13.68 Q 83.71 -13.68 83.9 -13.52 Q 84.09 -13.36 84.09 -13 L 84.09 -13 L 84.09 -7.75 Q 84.09 -7.56 84.13 -7.37 Q 84.17 -7.18 84.25 -6.97 L 84.25 -6.97 L 85.14 -4.31 Q 85.2 -4.12 85.27 -4.06 Q 85.35 -3.99 85.5 -3.99 L 85.5 -3.99 L 85.71 -3.99 Q 85.86 -3.99 85.94 -4.06 Q 86.01 -4.12 86.07 -4.31 L 86.07 -4.31 L 86.96 -6.99 Q 87.04 -7.2 87.08 -7.39 Q 87.12 -7.58 87.12 -7.77 L 87.12 -7.77 L 87.12 -13 Q 87.12 -13.36 87.28 -13.52 Q 87.44 -13.68 87.8 -13.68 L 87.8 -13.68 L 90.78 -13.68 Q 91.14 -13.68 91.3 -13.52 Q 91.47 -13.36 91.47 -13 L 91.47 -13 L 91.47 -7.98 Q 91.47 -7.52 91.44 -7.21 Q 91.41 -6.9 91.33 -6.61 Q 91.26 -6.33 91.14 -6.01 Q 91.03 -5.7 90.86 -5.28 L 90.86 -5.28 L 89 -0.63 Q 88.86 -0.27 88.63 -0.13 Q 88.39 0 88.03 0 Z M 116.09 0 L 116.09 0 L 107.27 0 Q 106.91 0 106.75 -0.16 Q 106.59 -0.32 106.59 -0.68 L 106.59 -0.68 L 106.59 -13 Q 106.59 -13.36 106.75 -13.52 Q 106.91 -13.68 107.27 -13.68 L 107.27 -13.68 L 116.09 -13.68 Q 116.45 -13.68 116.61 -13.52 Q 116.77 -13.36 116.77 -13 L 116.77 -13 L 116.77 -10.77 Q 116.77 -10.41 116.61 -10.25 Q 116.45 -10.09 116.09 -10.09 L 116.09 -10.09 L 110.85 -10.09 L 110.85 -8.63 L 114.55 -8.63 Q 114.91 -8.63 115.07 -8.46 Q 115.24 -8.3 115.24 -7.94 L 115.24 -7.94 L 115.24 -5.91 Q 115.24 -5.55 115.07 -5.39 Q 114.91 -5.22 114.55 -5.22 L 114.55 -5.22 L 110.85 -5.22 L 110.85 -3.59 L 116.09 -3.59 Q 116.45 -3.59 116.61 -3.43 Q 116.77 -3.27 116.77 -2.91 L 116.77 -2.91 L 116.77 -0.68 Q 116.77 -0.32 116.61 -0.16 Q 116.45 0 116.09 0 Z M 142.16 0 L 142.16 0 L 132.49 0 Q 132.13 0 131.96 -0.16 Q 131.8 -0.32 131.8 -0.68 L 131.8 -0.68 L 131.8 -13 Q 131.8 -13.36 131.96 -13.52 Q 132.13 -13.68 132.49 -13.68 L 132.49 -13.68 L 135.43 -13.68 Q 135.79 -13.68 135.95 -13.52 Q 136.12 -13.36 136.12 -13 L 136.12 -13 L 136.12 -3.59 L 138.72 -3.59 L 138.72 -6.67 Q 138.72 -7.03 138.88 -7.19 Q 139.04 -7.35 139.4 -7.35 L 139.4 -7.35 L 142.16 -7.35 Q 142.52 -7.35 142.68 -7.19 Q 142.84 -7.03 142.84 -6.67 L 142.84 -6.67 L 142.84 -0.68 Q 142.84 -0.32 142.68 -0.16 Q 142.52 0 142.16 0 Z M 166.9 0 L 166.9 0 L 162.26 0 Q 159.89 0 158.74 -0.95 Q 157.59 -1.9 157.59 -3.88 L 157.59 -3.88 L 157.59 -9.79 Q 157.59 -11.76 158.74 -12.72 Q 159.89 -13.68 162.26 -13.68 L 162.26 -13.68 L 166.9 -13.68 Q 167.26 -13.68 167.42 -13.52 Q 167.58 -13.36 167.58 -13 L 167.58 -13 L 167.58 -10.7 Q 167.58 -10.34 167.42 -10.17 Q 167.26 -10.01 166.9 -10.01 L 166.9 -10.01 L 163.08 -10.01 Q 162.49 -10.01 162.2 -9.78 Q 161.92 -9.54 161.92 -9.06 L 161.92 -9.06 L 161.92 -4.54 Q 161.92 -4.07 162.2 -3.85 Q 162.49 -3.63 163.08 -3.63 L 163.08 -3.63 L 166.9 -3.63 Q 167.26 -3.63 167.42 -3.47 Q 167.58 -3.31 167.58 -2.94 L 167.58 -2.94 L 167.58 -0.68 Q 167.58 -0.32 167.42 -0.16 Q 167.26 0 166.9 0 Z M 194.01 -10.07 L 194.01 -3.59 Q 194.01 -2.72 193.75 -2 Q 193.5 -1.29 192.84 -0.79 Q 192.19 -0.28 191.04 0 Q 189.89 0.28 188.12 0.28 L 188.12 0.28 Q 186.35 0.28 185.19 0 Q 184.03 -0.28 183.38 -0.79 Q 182.72 -1.29 182.47 -2 Q 182.21 -2.72 182.21 -3.59 L 182.21 -3.59 L 182.21 -10.07 Q 182.21 -10.94 182.47 -11.66 Q 182.72 -12.37 183.38 -12.88 Q 184.03 -13.39 185.19 -13.68 Q 186.35 -13.96 188.12 -13.96 L 188.12 -13.96 Q 189.89 -13.96 191.04 -13.68 Q 192.19 -13.39 192.84 -12.88 Q 193.5 -12.37 193.75 -11.66 Q 194.01 -10.94 194.01 -10.07 L 194.01 -10.07 Z M 186.52 -9.39 L 186.52 -4.27 Q 186.52 -3.9 186.81 -3.64 Q 187.09 -3.38 188.12 -3.38 L 188.12 -3.38 Q 189.15 -3.38 189.43 -3.64 Q 189.72 -3.9 189.72 -4.27 L 189.72 -4.27 L 189.72 -9.39 Q 189.72 -9.75 189.43 -10 Q 189.15 -10.26 188.12 -10.26 L 188.12 -10.26 Q 187.09 -10.26 186.81 -10 Q 186.52 -9.75 186.52 -9.39 L 186.52 -9.39 Z M 214.93 -10.26 L 213.5 -10.26 L 213.5 -7.83 L 214.93 -7.83 Q 215.42 -7.83 215.59 -8.08 Q 215.76 -8.34 215.76 -8.72 L 215.76 -8.72 L 215.76 -9.37 Q 215.76 -9.75 215.59 -10 Q 215.42 -10.26 214.93 -10.26 L 214.93 -10.26 Z M 212.82 0 L 212.82 0 L 209.89 0 Q 209.53 0 209.37 -0.16 Q 209.21 -0.32 209.21 -0.68 L 209.21 -0.68 L 209.21 -13 Q 209.21 -13.36 209.37 -13.52 Q 209.53 -13.68 209.89 -13.68 L 209.89 -13.68 L 216.22 -13.68 Q 218.35 -13.68 219.16 -12.8 Q 219.96 -11.91 219.96 -10.51 L 219.96 -10.51 L 219.96 -9.63 Q 219.96 -8.83 219.73 -8.27 Q 219.49 -7.71 218.9 -7.47 L 218.9 -7.47 Q 219.93 -7.35 220.56 -6.63 Q 221.2 -5.91 221.2 -4.71 L 221.2 -4.71 L 221.2 -0.68 Q 221.2 -0.32 221.04 -0.16 Q 220.88 0 220.51 0 L 220.51 0 L 217.57 0 Q 217.21 0 217.05 -0.16 Q 216.89 -0.32 216.89 -0.68 L 216.89 -0.68 L 216.89 -3.59 Q 216.89 -4.01 216.72 -4.21 Q 216.56 -4.41 216.16 -4.41 L 216.16 -4.41 L 213.5 -4.41 L 213.5 -0.68 Q 213.5 -0.32 213.34 -0.16 Q 213.18 0 212.82 0 Z M 239.74 0 L 239.74 0 L 236.8 0 Q 236.44 0 236.27 -0.16 Q 236.11 -0.32 236.11 -0.68 L 236.11 -0.68 L 236.11 -13 Q 236.11 -13.36 236.27 -13.52 Q 236.44 -13.68 236.8 -13.68 L 236.8 -13.68 L 242.61 -13.68 Q 245.2 -13.68 246.15 -12.65 Q 247.1 -11.63 247.1 -9.97 L 247.1 -9.97 L 247.1 -7.54 Q 247.1 -5.89 246.15 -4.86 Q 245.2 -3.84 242.61 -3.84 L 242.61 -3.84 L 240.43 -3.84 L 240.43 -0.68 Q 240.43 -0.32 240.26 -0.16 Q 240.1 0 239.74 0 Z M 242.1 -10.13 L 240.39 -10.13 L 240.39 -7.26 L 242.1 -7.26 Q 242.65 -7.26 242.82 -7.54 Q 242.99 -7.83 242.99 -8.19 L 242.99 -8.19 L 242.99 -9.2 Q 242.99 -9.56 242.82 -9.84 Q 242.65 -10.13 242.1 -10.13 L 242.1 -10.13 Z" stroke-linecap="round" />
</g>
</g>
</g>
</svg>